HIERARCHY
ROOT pelvis
{
  OFFSET 0 100 0
  CHANNELS 6 Xposition Yposition Zposition Zrotation Xrotation Yrotation
  JOINT pelvis_right_femur
  {
    OFFSET -10.78128 -3.44521 -0.5502486
    CHANNELS 3 Zrotation Xrotation Yrotation
    JOINT right_femur_tibia
    {
      OFFSET -0.8047443 -44.0398 -0.1307829
      CHANNELS 3 Zrotation Xrotation Yrotation
      JOINT right_tibia_foot
      {
        OFFSET 3.006224 -47.83518 -5
        CHANNELS 3 Zrotation Xrotation Yrotation
        End Site
        {
          OFFSET 0 -5 15
        }
      }
    }
  }
  JOINT pelvis_left_femur
  {
    OFFSET 10.78128 -3.44521 -0.5502486
    CHANNELS 3 Zrotation Xrotation Yrotation
    JOINT left_femur_tibia
    {
      OFFSET 0.8047443 -44.0398 -0.1307829
      CHANNELS 3 Zrotation Xrotation Yrotation
      JOINT left_tibia_foot
      {
        OFFSET -4.370144 -48.10324 -4.275266
        CHANNELS 3 Zrotation Xrotation Yrotation
        End Site
        {
          OFFSET 0 -5 15
        }
      }
    }
  }
  JOINT pelvis_spine1
  {
    OFFSET 0 6.468898 -3.129235
    CHANNELS 3 Zrotation Xrotation Yrotation
    JOINT spine1
    {
      OFFSET 0 23.15396 4.99043
      CHANNELS 3 Zrotation Xrotation Yrotation
      JOINT spine2
      {
        OFFSET 0 20.79997 -5.064912
        CHANNELS 3 Zrotation Xrotation Yrotation
        JOINT neck
        {
          OFFSET 0 14.38658 9.616178
          CHANNELS 3 Zrotation Xrotation Yrotation
          End Site
          {
            OFFSET 0 20 0
          }
        }
      }
      JOINT right_manubrium
      {
        OFFSET -5.722621 16.35077 3.967754
        CHANNELS 3 Zrotation Xrotation Yrotation
        JOINT right_clavicle
        {
          OFFSET -13.16364 1.694482 -4.693211
          CHANNELS 3 Zrotation Xrotation Yrotation
          JOINT right_humerus
          {
            OFFSET -28.5034 -0.3100689 -2.792744
            CHANNELS 3 Zrotation Xrotation Yrotation
            JOINT right_radius
            {
              OFFSET -25.15693 0.02248979 -1.271978
              CHANNELS 3 Zrotation Xrotation Yrotation
              End Site
              {
                OFFSET -15 0 0
              }
            }
          }
        }
      }
      JOINT left_manubrium
      {
        OFFSET 5.722621 16.35077 3.967754
        CHANNELS 3 Zrotation Xrotation Yrotation
        JOINT left_clavicle
        {
          OFFSET 13.16364 1.694482 -4.693211
          CHANNELS 3 Zrotation Xrotation Yrotation
          JOINT left_humerus
          {
            OFFSET 29.39168 -1.063119 -2.237045
            CHANNELS 3 Zrotation Xrotation Yrotation
            JOINT left_radius
            {
              OFFSET 24.59957 -0.9528479 0.9047498
              CHANNELS 3 Zrotation Xrotation Yrotation
              End Site
              {
                OFFSET 15 -0 -0
              }
            }
          }
        }
      }
    }
  }
}
MOTION
Frames: 15
Frame Time: 0.0416666666667
0 103.5113 0 2.21667 -1.132011 0.278955 1.190282 -10.06845 8.624314 -0 33.65588 -0 -5.224489 -17.801 -2.175085 -8.080231 10.10144 -23.43691 -0 5.224859 -0 7.625085 -16.19441 26.49051 -4.371115 -5.066763 4.990795 2.038357 9.212757 -7.722944 0.8388196 22.78252 7.176645 3.26342 -23.10235 8.802567 6.352074 -19.71257 11.57206 86.34012 35.95356 -19.85199 -0 0 16.17833 -7.580898 8.254663 4.610093 5.554909 -19.50611 -1.687171 -94.74642 29.73919 22.82556 0 0 -16.1446 3.529797 17.87729 9.513796
0.3621047 103.2761 1.463693 2.144125 -0.8968283 0.4832545 1.332948 -10.93036 8.32224 -0 31.8031 -0 -5.191415 -17.13068 -1.866783 -8.038874 10.26048 -23.18485 -0 5.473549 -0 7.376011 -16.51695 26.13997 -4.366764 -4.919685 5.000608 2.145902 9.182621 -7.704026 0.8645909 22.63781 7.197079 3.307488 -23.22244 8.818663 6.293808 -19.56636 11.55916 86.39374 35.94579 -20.01955 -0 0 15.93242 -7.626963 8.310528 4.619384 5.719298 -19.59932 -1.674185 -94.57983 29.68785 22.49469 0 0 -16.67829 3.626944 17.74268 9.409599
0.7555768 102.9674 3.116422 2.059429 -0.562846 0.6683157 1.48758 -12.02987 7.877406 -0 28.97035 -0 -5.147111 -16.17535 -1.382756 -8.004133 10.47984 -22.80254 -0 5.900468 -0 6.993966 -16.93719 25.60279 -4.366152 -4.737083 5.023597 2.291154 9.140205 -7.671065 0.8987153 22.44193 7.222095 3.368067 -23.37437 8.832959 6.203843 -19.34934 11.53492 86.4865 35.9344 -20.27032 -0 0 15.56662 -7.693954 8.394569 4.633428 5.95028 -19.73486 -1.656429 -94.34141 29.6158 22.01906 0 0 -17.4186 3.750904 17.5548 9.26635
1.187538 102.5724 5.016694 1.969917 -0.1479764 0.845613 1.62998 -13.22844 7.312412 -0 25.28686 -0 -5.109059 -14.9997 -0.7423137 -7.980334 10.73661 -22.29283 -0 6.564408 -0 6.46704 -17.38789 24.87285 -4.361144 -4.540988 5.057177 2.461293 9.088555 -7.627673 0.9350509 22.2114 7.249873 3.439192 -23.53966 8.839563 6.085753 -19.06869 11.49848 86.62402 35.91999 -20.59581 -0 0 15.0911 -7.782188 8.507234 4.654958 6.224412 -19.90321 -1.637384 -94.04664 29.52418 21.43212 0 0 -18.29929 3.885283 17.32074 9.101043
1.66021 102.0962 7.2177 1.873365 0.3186967 1.030386 1.750779 -14.33886 6.670222 -0 21.05702 -0 -5.107419 -13.71164 0.003996493 -7.95745 10.99217 -21.65938 -0 7.581241 -0 5.769046 -17.75635 23.93664 -4.327549 -4.355961 5.089499 2.638497 9.032214 -7.585392 0.9622345 21.9687 7.28036 3.511185 -23.69523 8.831083 5.948574 -18.73617 11.4502 86.81321 35.90442 -20.98037 -0 0 14.52165 -7.894779 8.650789 4.690566 6.498872 -20.08632 -1.624534 -93.72005 29.41293 20.79238 0 0 -19.21261 4.007494 17.04513 8.943597
2.168994 101.5705 9.767593 1.761308 0.7995815 1.240394 1.854378 -15.13265 6.008653 -0 16.70426 -0 -5.176705 -12.45114 0.7868404 -7.91493 11.19423 -20.90517 -0 9.115556 -0 4.865993 -17.89267 22.77681 -4.229543 -4.208875 5.10263 2.800992 8.976859 -7.561024 0.9649741 21.74107 7.314531 3.571579 -23.8139 8.79848 5.805084 -18.36637 11.3912 87.06218 35.89074 -21.4033 -0 0 13.87729 -8.037496 8.829191 4.750035 6.716423 -20.25993 -1.628667 -93.39201 29.28195 20.17612 0 0 -20.02026 4.09022 16.73063 8.833351
2.704382 101.0485 12.70805 1.627318 1.256484 1.492902 1.951553 -15.41444 5.380441 -0 12.61198 -0 -5.33823 -11.34514 1.544859 -7.834026 11.28465 -20.03708 -0 11.3037 -0 3.746433 -17.66517 21.39747 -4.039006 -4.119237 5.084496 2.929776 8.928608 -7.566471 0.9308466 21.55245 7.352289 3.609646 -23.87232 8.733746 5.667206 -17.97523 11.32432 87.37234 35.88157 -21.84013 -0 0 13.18037 -8.217227 9.045113 4.843021 6.828475 -20.40216 -1.658836 -93.08944 29.13176 19.6517 0 0 -20.60477 4.11152 16.3802 8.802711
3.2569 100.5911 16.06805 1.476717 1.649365 1.798529 2.045936 -15.0598 4.81822 -0 9.011484 -0 -5.589321 -10.48227 2.241849 -7.709027 11.18311 -19.0699 -0 14.21006 -0 2.445436 -16.99828 19.84673 -3.752856 -4.08999 5.043082 3.012236 8.89553 -7.597299 0.8554406 21.41974 7.389705 3.619432 -23.85431 8.630485 5.543304 -17.58168 11.25703 87.72773 35.87888 -22.25656 -0 0 12.46141 -8.444173 9.298062 4.978709 6.811987 -20.49819 -1.71756 -92.83173 28.96286 19.26477 0 0 -20.90583 4.061282 15.99876 8.865445
3.822019 100.252 19.85206 1.334613 1.922555 2.151815 2.122052 -13.97413 4.335338 -0 5.98953 -0 -5.90331 -9.930221 2.864913 -7.550001 10.74269 -18.02633 -0 17.85935 -0 1.046467 -15.8627 18.22202 -3.398367 -4.104425 5.01668 3.038995 8.891505 -7.625126 0.7422924 21.35745 7.416468 3.598922 -23.74503 8.480601 5.43935 -17.21265 11.20528 88.08623 35.88594 -22.59494 -0 0 11.76774 -8.738709 9.585262 5.170265 6.668202 -20.5372 -1.799339 -92.63539 28.77394 19.04654 0 0 -20.91454 3.938589 15.5931 9.01799
4.402194 100.0691 24.02873 1.245101 2.003416 2.52318 2.146121 -12.06201 3.933613 -0 3.537295 -0 -6.236435 -9.750955 3.416047 -7.375339 9.746669 -16.93453 -0 22.26255 -0 -0.3368904 -14.26078 16.65391 -3.026214 -4.130205 5.069127 3.001218 8.936155 -7.6013 0.6003676 21.38085 7.416683 3.548571 -23.52749 8.273269 5.359957 -16.90329 11.1926 88.38288 35.90851 -22.77414 -0 0 11.16303 -9.132389 9.902606 5.436354 6.414532 -20.50946 -1.892284 -92.51722 28.56159 19.02251 0 0 -20.65451 3.747368 15.17108 9.245683
5.00398 100.0637 28.53276 1.252675 1.833236 2.862701 2.08476 -9.269681 3.610936 -0 1.594547 -0 -6.542905 -9.981873 3.903858 -7.19545 8.003411 -15.82237 -0 27.36904 -0 -1.59985 -12.23391 15.264 -2.68884 -4.134203 5.259297 2.893165 9.045324 -7.479661 0.4404913 21.49995 7.375925 3.471172 -23.18998 8.000999 5.306234 -16.68634 11.23915 88.55358 35.95168 -22.71876 -0 0 10.70796 -9.655253 10.24404 5.793976 6.07639 -20.40926 -1.982978 -92.48844 28.32244 19.20589 0 0 -20.16604 3.494741 14.74029 9.529702
5.632747 100.2424 33.27981 1.381756 1.399344 3.116356 1.920027 -5.637762 3.363907 -0 0.07474039 -0 -6.784189 -10.61232 4.33966 -7.002519 5.437221 -14.71098 -0 32.96331 -0 -2.672817 -9.882816 14.13836 -2.423466 -4.097034 5.611834 2.714964 9.220246 -7.238075 0.2733455 21.71192 7.287774 3.372157 -22.73431 7.666392 5.271593 -16.58486 11.35 88.5515 36.01528 -22.38072 -0 0 10.44806 -10.32693 10.60027 6.252756 5.684139 -20.23826 -2.059959 -92.54758 28.05539 19.58867 0 0 -19.49782 3.190775 14.3071 9.851714
6.290058 100.5875 38.1836 1.631094 0.7425098 3.245291 1.646803 -1.308795 3.184078 0 -1.135679 0 -6.922039 -11.58079 4.739649 -6.771803 2.09014 -13.61017 -0 38.54795 -0 -3.514 -7.392489 13.3423 -2.254106 -4.016717 6.11151 2.471739 9.443032 -6.881865 0.1106524 21.99868 7.154299 3.259459 -22.17654 7.283976 5.237148 -16.61866 11.51081 88.33608 36.09135 -21.7264 -0 0 10.42712 -11.16436 10.95736 6.81856 5.27784 -20.00504 -2.112454 -92.67863 27.76174 20.14138 0 0 -18.70822 2.848235 13.87694 10.19423
6.975515 101.0441 43.17021 1.978889 -0.05431557 3.239856 1.266166 3.497997 3.055309 0 -2.176039 0 -6.911597 -12.78692 5.126992 -6.467866 -1.916158 -12.51634 -0 43.3388 -0 -4.096165 -5.028834 12.93707 -2.198372 -3.905284 6.712676 2.171863 9.679499 -6.436965 -0.03392932 22.32967 6.983456 3.142539 -21.54321 6.877644 5.171777 -16.81074 11.69075 87.8617 36.16366 -20.72109 -0 0 10.69879 -12.18927 11.29653 7.497714 4.90883 -19.72274 -2.129076 -92.85417 27.44469 20.81907 0 0 -17.86527 2.481668 13.45477 10.54011
7.690953 101.5193 48.18698 2.393684 -0.8979768 3.120063 0.7844718 8.545012 2.961654 0 -3.16831 0 -6.713655 -14.11872 5.525816 -6.056817 -6.417345 -11.41641 -0 46.55441 -0 -4.410519 -3.05134 12.96041 -2.265363 -3.781261 7.360068 1.82614 9.892935 -5.937658 -0.1480608 22.67126 6.785693 3.030029 -20.8642 6.472961 5.044912 -17.178 11.85526 87.09595 36.21013 -19.345 -0 0 11.30587 -13.41699 11.59802 8.29223 4.623982 -19.40556 -2.101717 -93.04495 27.10896 21.57377 0 0 -17.03089 2.104427 13.04475 10.87549
